<?xml version="1.0" standalone="no"?>
<!DOCTYPE svg PUBLIC "-//W3C//DTD SVG 20010904//EN"
 "http://www.w3.org/TR/2001/REC-SVG-20010904/DTD/svg10.dtd">
<svg version="1.0" xmlns="http://www.w3.org/2000/svg"
 width="512.000000pt" height="512.000000pt" viewBox="0 0 512.000000 512.000000"
 preserveAspectRatio="xMidYMid meet">

<g transform="translate(0.000000,512.000000) scale(0.100000,-0.100000)"
fill="#000000" stroke="none">
<path d="M2330 4833 c-206 -21 -437 -70 -570 -121 -41 -16 -100 -39 -130 -50
-159 -62 -402 -206 -565 -337 -403 -322 -703 -821 -804 -1335 -32 -166 -41
-261 -41 -455 0 -385 73 -700 240 -1036 184 -370 503 -717 851 -927 205 -123
450 -232 522 -232 40 0 84 26 102 60 23 44 18 487 -5 481 -8 -2 -77 -6 -152
-9 -129 -4 -143 -3 -225 23 -180 56 -336 179 -403 318 -41 83 -109 174 -176
235 -33 30 -76 69 -96 88 -21 18 -38 41 -38 49 0 9 19 25 45 36 39 17 51 18
87 9 117 -32 243 -133 335 -270 62 -93 128 -154 200 -187 53 -24 62 -25 167
-20 102 6 261 37 277 55 4 4 12 31 18 60 13 64 60 159 102 207 18 20 30 37 28
39 -2 1 -38 8 -79 15 -106 19 -318 70 -360 88 -226 98 -346 199 -459 387 -56
95 -95 200 -122 331 -18 90 -22 143 -23 290 0 167 2 187 27 272 32 109 89 223
157 314 l48 65 -19 79 c-33 134 -36 254 -9 360 12 50 29 107 38 129 l15 39 59
-7 c158 -16 398 -109 541 -208 28 -20 28 -20 148 6 175 38 326 50 539 43 192
-6 253 -13 407 -48 l92 -21 66 41 c134 85 285 146 432 176 122 25 134 21 156
-45 31 -94 47 -182 47 -262 0 -76 -19 -199 -39 -251 -10 -25 -6 -33 39 -89
127 -157 190 -352 190 -583 0 -361 -96 -623 -302 -821 -148 -144 -324 -224
-588 -268 -52 -9 -106 -18 -120 -20 -14 -3 -29 -5 -34 -5 -4 -1 6 -16 23 -33
52 -53 97 -155 116 -264 16 -86 17 -140 12 -443 -5 -327 -4 -347 14 -382 42
-83 147 -67 419 63 446 214 825 588 1050 1037 128 255 198 489 230 774 24 207
25 299 5 488 -34 324 -92 523 -234 809 -219 440 -566 791 -1005 1015 -273 140
-507 208 -831 245 -84 9 -336 11 -415 3z"/>
</g>
</svg>
